<svg height="423pt" viewBox="0 -20 423.81995 423" width="423pt" xmlns="http://www.w3.org/2000/svg"><path d="m416.992188 61.851562h-268.109376c-6.445312-34.902343-37.050781-61.441406-73.789062-61.441406-41.40625 0-75.09375 33.6875-75.09375 75.09375 0 31.535156 19.566406 58.542969 47.175781 69.652344v176.105469c0 3.773437 3.050781 6.828125 6.824219 6.828125h146.136719l-7.203125 40.960937h-49.574219c-3.773437 0-6.824219 3.054688-6.824219 6.824219 0 3.773438 3.050782 6.828125 6.824219 6.828125h191.148437c3.773438 0 6.824219-3.054687 6.824219-6.828125 0-3.769531-3.050781-6.824219-6.824219-6.824219h-50.394531l-7.203125-40.960937h140.082032c3.773437 0 6.828124-3.054688 6.828124-6.828125v-252.585938c0-3.769531-3.054687-6.824219-6.828124-6.824219zm-379.445313-.195312c-5.539063 0-10.046875-4.507812-10.046875-10.046875s4.507812-10.046875 10.046875-10.046875 10.046875 4.507812 10.046875 10.046875-4.507812 10.046875-10.046875 10.046875zm-21.953125-1.207031c3.105469 7.671875 10.105469 13.28125 18.539062 14.515625v28.34375h-13.753906c-4.269531-8.359375-6.726562-17.792969-6.726562-27.804688 0-5.203125.722656-10.226562 1.941406-15.054687zm14.289062 56.515625h11.078126c3.773437 0 6.824218-3.058594 6.824218-6.828125v-37.25c7.933594-3.835938 13.460938-11.894531 13.460938-21.277344 0-13.066406-10.632813-23.699219-23.699219-23.699219-.492187 0-.953125.117188-1.4375.144532 10.613281-8.738282 24.195313-13.992188 38.984375-13.992188 21.257812 0 40.015625 10.855469 51.050781 27.308594h-30.570312c-3.773438 0-6.828125 3.054687-6.828125 6.824218v23.097657c-7.929688 3.835937-13.460938 11.894531-13.460938 21.277343 0 13.066407 10.632813 23.699219 23.703125 23.699219 13.066407 0 23.699219-10.632812 23.699219-23.699219 0-11.898437-8.84375-21.683593-20.289062-23.355468v-14.191406h30.550781c2.277343 6.417968 3.585937 13.292968 3.585937 20.480468 0 33.875-27.5625 61.4375-61.441406 61.4375v-13.652344c0-3.769531-3.054688-6.824218-6.828125-6.824218s-6.824219 3.054687-6.824219 6.824218v12.070313c-12.355468-2.816406-23.269531-9.367187-31.558594-18.394531zm69.105469-34.441406c5.539063 0 10.046875 4.507812 10.046875 10.046874 0 5.539063-4.507812 10.046876-10.046875 10.046876-5.542969 0-10.046875-4.507813-10.046875-10.046876 0-5.539062 4.503906-10.046874 10.046875-10.046874zm-33.628906 67.367187c.886719.425781 1.855469.707031 2.90625.707031.488281 0 .914063-.179687 1.371094-.277344 1.808593.132813 3.613281.277344 5.457031.277344 41.40625 0 75.09375-33.6875 75.09375-75.09375h259.980469v191.761719h-349.339844v-118.070313c1.492187.292969 3.007813.5 4.53125.695313zm204.886719 219.160156h-63.445313l7.207031-40.960937h49.03125zm139.921875-54.613281h-349.339844v-33.519531h349.339844zm0 0"/><path d="m153.972656 128.96875 9.867188-6.578125v35.03125c0 3.769531 3.054687 6.828125 6.828125 6.828125 3.773437 0 6.824219-3.058594 6.824219-6.828125v-47.785156c0-2.515625-1.382813-4.828125-3.605469-6.019531-2.214844-1.191407-4.914063-1.054688-7.003907.339843l-20.480468 13.652344c-3.140625 2.089844-3.988282 6.332031-1.894532 9.46875 2.085938 3.132813 6.3125 3.980469 9.464844 1.890625zm0 0"/><path d="m201.761719 128.96875 9.863281-6.578125v35.03125c0 3.769531 3.054688 6.828125 6.828125 6.828125s6.828125-3.058594 6.828125-6.828125v-47.785156c0-2.515625-1.386719-4.828125-3.609375-6.019531-2.210937-1.191407-4.910156-1.054688-7.003906.339843l-20.480469 13.652344c-3.140625 2.089844-3.984375 6.332031-1.890625 9.46875 2.078125 3.132813 6.316406 3.980469 9.464844 1.890625zm0 0"/><path d="m304.160156 128.96875 9.867188-6.578125v35.03125c0 3.769531 3.050781 6.828125 6.824218 6.828125 3.773438 0 6.828126-3.058594 6.828126-6.828125v-47.785156c0-2.515625-1.386719-4.828125-3.605469-6.019531-2.214844-1.191407-4.921875-1.054688-7.007813.339843l-20.476562 13.652344c-3.140625 2.089844-3.988282 6.332031-1.894532 9.46875 2.085938 3.132813 6.3125 3.980469 9.464844 1.890625zm0 0"/><path d="m259.414062 164.25c11.292969 0 20.480469-9.1875 20.480469-20.480469v-20.480469c0-11.292968-9.1875-20.480468-20.480469-20.480468-11.292968 0-20.480468 9.1875-20.480468 20.480468v20.480469c0 11.292969 9.1875 20.480469 20.480468 20.480469zm-6.828124-40.960938c0-3.761718 3.0625-6.824218 6.828124-6.824218 3.765626 0 6.824219 3.0625 6.824219 6.824218v20.480469c0 3.761719-3.058593 6.828125-6.824219 6.828125-3.765624 0-6.828124-3.066406-6.828124-6.828125zm0 0"/><path d="m85.707031 210.890625 9.867188-6.578125v35.03125c0 3.769531 3.050781 6.828125 6.824219 6.828125 3.773437 0 6.828124-3.058594 6.828124-6.828125v-47.785156c0-2.519532-1.386718-4.832032-3.605468-6.019532-2.214844-1.183593-4.914063-1.054687-7.007813.335938l-20.480469 13.65625c-3.136718 2.089844-3.984374 6.328125-1.890624 9.464844 2.085937 3.132812 6.316406 3.984375 9.464843 1.894531zm0 0"/><path d="m133.492188 210.890625 9.867187-6.578125v35.03125c0 3.769531 3.054687 6.828125 6.828125 6.828125s6.824219-3.058594 6.824219-6.828125v-47.785156c0-2.519532-1.382813-4.832032-3.605469-6.019532-2.210938-1.183593-4.914062-1.054687-7.003906.335938l-20.480469 13.65625c-3.140625 2.089844-3.988281 6.328125-1.894531 9.464844 2.085937 3.132812 6.3125 3.984375 9.464844 1.894531zm0 0"/><path d="m248.980469 185.539062c-2.214844-1.183593-4.914063-1.054687-7.003907.335938l-20.480468 13.65625c-3.140625 2.089844-3.988282 6.328125-1.894532 9.464844 2.085938 3.132812 6.320313 3.984375 9.46875 1.894531l9.863282-6.578125v35.03125c0 3.769531 3.054687 6.828125 6.828125 6.828125 3.773437 0 6.828125-3.058594 6.828125-6.828125v-47.785156c-.003906-2.519532-1.390625-4.832032-3.609375-6.019532zm0 0"/><path d="m170.667969 205.210938v20.480468c0 11.292969 9.1875 20.480469 20.480469 20.480469 11.292968 0 20.476562-9.1875 20.476562-20.480469v-20.480468c0-11.292969-9.183594-20.480469-20.476562-20.480469-11.292969 0-20.480469 9.1875-20.480469 20.480469zm13.652343 0c0-3.765626 3.058594-6.828126 6.828126-6.828126 3.765624 0 6.824218 3.0625 6.824218 6.828126v20.480468c0 3.761719-3.058594 6.824219-6.824218 6.824219-3.769532 0-6.828126-3.0625-6.828126-6.824219zm0 0"/><path d="m266.238281 205.210938v20.480468c0 11.292969 9.1875 20.480469 20.480469 20.480469s20.480469-9.1875 20.480469-20.480469v-20.480468c0-11.292969-9.1875-20.480469-20.480469-20.480469s-20.480469 9.1875-20.480469 20.480469zm13.65625 0c0-3.765626 3.058594-6.828126 6.824219-6.828126 3.769531 0 6.828125 3.0625 6.828125 6.828126v20.480468c0 3.761719-3.058594 6.824219-6.828125 6.824219-3.765625 0-6.824219-3.0625-6.824219-6.824219zm0 0"/><path d="m320.851562 205.210938v20.480468c0 11.292969 9.1875 20.480469 20.480469 20.480469s20.480469-9.1875 20.480469-20.480469v-20.480468c0-11.292969-9.1875-20.480469-20.480469-20.480469s-20.480469 9.1875-20.480469 20.480469zm13.65625 0c0-3.765626 3.058594-6.828126 6.824219-6.828126 3.769531 0 6.828125 3.0625 6.828125 6.828126v20.480468c0 3.761719-3.058594 6.824219-6.828125 6.824219-3.765625 0-6.824219-3.0625-6.824219-6.824219zm0 0"/><path d="m361.8125 164.25c11.292969 0 20.480469-9.1875 20.480469-20.480469v-20.480469c0-11.292968-9.1875-20.480468-20.480469-20.480468s-20.480469 9.1875-20.480469 20.480468v20.480469c0 11.292969 9.1875 20.480469 20.480469 20.480469zm-6.824219-40.960938c0-3.761718 3.058594-6.824218 6.824219-6.824218s6.828125 3.0625 6.828125 6.824218v20.480469c0 3.761719-3.0625 6.828125-6.828125 6.828125s-6.824219-3.066406-6.824219-6.828125zm0 0"/></svg>