<?xml version="1.0" encoding="iso-8859-1"?>
<!-- Generator: Adobe Illustrator 18.1.1, SVG Export Plug-In . SVG Version: 6.00 Build 0)  -->
<svg version="1.1" id="Capa_1" xmlns="http://www.w3.org/2000/svg" xmlns:xlink="http://www.w3.org/1999/xlink" x="0px" y="0px"
	 viewBox="0 0 71.591 71.591" style="enable-background:new 0 0 71.591 71.591;" xml:space="preserve">
<g>
	<g>
		<polygon style="fill:#010002;" points="46.525,57.53 25.052,57.53 17.894,64.688 53.683,64.688 		"/>
		<path style="fill:#010002;" d="M0,6.904v46.525h17.329v-1.857c0.497-0.462,1.077-0.83,1.7-1.167
			c1.063-0.569,2.112-1.149,3.196-1.668c1.049-0.501,2.14-0.934,3.207-1.381c1.013-0.426,2.036-0.827,3.042-1.267
			c0.172-0.075,0.347-0.258,0.419-0.437c0.222-0.562,0.412-1.142,0.587-1.721c0.132-0.44,0.222-0.873,0.791-0.988
			c0.136-0.029,0.315-0.276,0.344-0.44c0.111-0.841,0.197-1.696,0.254-2.541c0.014-0.179-0.079-0.408-0.208-0.548
			c-0.741-0.827-1.145-1.793-1.321-2.895c-0.086-0.551-0.397-1.066-0.555-1.61c-0.208-0.734-0.387-1.471-0.548-2.212
			c-0.068-0.268-0.036-0.558-0.072-0.827c-0.072-0.401-0.057-0.709,0.419-0.866c0.132-0.039,0.243-0.361,0.243-0.551
			c0.029-1.185,0.007-2.369,0.021-3.554c0.007-0.73,0-1.46,0.054-2.18c0.1-1.389,0.916-2.369,1.94-3.21
			c1.492-1.231,3.278-1.807,5.111-2.237c0.97-0.225,1.954-0.369,2.931-0.526c0.261-0.039,0.526,0,0.802,0
			c0.05,0.068,0.089,0.132,0.136,0.197c-0.215,0.15-0.433,0.279-0.616,0.451c-0.394,0.401-0.361,0.676,0.075,1.041
			c0.888,0.748,1.764,1.5,2.627,2.276c0.762,0.68,1.056,1.575,1.056,2.58c0.004,1.721,0.004,3.446,0.004,5.171
			c-0.004,0.354-0.029,0.701,0.408,0.863c0.089,0.029,0.19,0.222,0.186,0.336c-0.075,0.884-0.168,1.764-0.261,2.645
			c0,0.036-0.007,0.075-0.025,0.1c-0.798,1.156-0.898,2.577-1.464,3.819c-0.029,0.047-0.036,0.104-0.075,0.143
			c-1.049,1.245-0.716,2.727-0.737,4.151c-0.007,0.143,0.089,0.372,0.218,0.422c0.426,0.186,0.53,0.555,0.659,0.945
			c0.183,0.612,0.372,1.235,0.633,1.814c0.097,0.218,0.379,0.401,0.626,0.49c3.232,1.245,6.438,2.559,9.523,4.144
			c0.626,0.315,1.149,0.705,1.603,1.167v1.936h17.329V6.914H0V6.904z M27.647,40.942c-0.755,0.755-1.027,1.664-1.16,2.09
			c-0.061,0.197-0.115,0.387-0.183,0.58l-2.774,1.152c-0.891,0.372-1.782,0.741-2.652,1.156c-0.526,0.247-1.031,0.526-1.55,0.802
			c-3.5,0-6.989,0-10.486,0v-1.453c0.383-0.369,0.841-0.655,1.328-0.916c0.827-0.44,1.65-0.895,2.494-1.306
			c0.823-0.387,1.675-0.727,2.516-1.084c0.795-0.333,1.593-0.648,2.38-0.984c0.129-0.064,0.268-0.211,0.329-0.344
			c0.175-0.44,0.326-0.895,0.462-1.349c0.104-0.344,0.179-0.684,0.619-0.777c0.104-0.025,0.243-0.218,0.265-0.347
			c0.089-0.662,0.154-1.324,0.204-1.993c0.007-0.143-0.064-0.319-0.154-0.429c-0.587-0.651-0.909-1.406-1.041-2.269
			c-0.075-0.433-0.315-0.834-0.433-1.263c-0.168-0.573-0.308-1.152-0.433-1.732c-0.054-0.211-0.021-0.437-0.057-0.648
			c-0.054-0.315-0.043-0.555,0.329-0.676c0.107-0.032,0.2-0.283,0.2-0.433c0.021-0.927,0.004-1.857,0.011-2.784
			c0.007-0.573,0-1.142,0.047-1.711c0.075-1.088,0.716-1.857,1.521-2.516c1.163-0.966,2.566-1.417,4.001-1.754
			c0.755-0.179,1.528-0.29,2.298-0.412c0.211-0.032,0.419,0,0.63,0c0.032,0.05,0.072,0.104,0.104,0.154
			c-0.161,0.115-0.344,0.218-0.487,0.351c-0.311,0.315-0.276,0.53,0.061,0.816c0.233,0.2,0.469,0.412,0.705,0.612
			c-0.48,0.809-0.859,1.804-0.956,3.006c-0.047,0.666-0.054,1.338-0.054,2.011l-0.014,2.899c-0.462,0.626-0.873,1.589-0.659,2.899
			c0.007,0.247,0.018,0.662,0.118,1.056c0.172,0.805,0.372,1.607,0.601,2.437c0.097,0.329,0.222,0.655,0.358,0.966
			c0.05,0.118,0.1,0.233,0.111,0.251c0.222,1.392,0.684,2.595,1.417,3.654C27.661,40.752,27.654,40.849,27.647,40.942z
			 M62.734,46.722c-3.468,0-6.939,0-10.414,0c-2.545-1.217-5.06-2.283-7.283-3.149c-0.064-0.193-0.125-0.401-0.204-0.655
			c-0.104-0.336-0.301-0.945-0.748-1.553c-0.007-0.369-0.029-0.895-0.007-0.981l0.565-0.87c0.286-0.644,0.497-1.31,0.687-1.99
			c0.154-0.53,0.308-1.077,0.533-1.421l0.265-0.437l0.315-1.578c0.075-0.727,0.154-1.453,0.222-2.358
			c0.018-0.705-0.211-1.442-0.594-2.047l-0.004-4.402c0-1.492-0.412-2.82-1.192-3.901c1.063-0.723,2.273-1.12,3.514-1.417
			c0.755-0.179,1.528-0.29,2.294-0.412c0.211-0.032,0.412,0,0.63,0c0.036,0.05,0.072,0.104,0.104,0.154
			c-0.161,0.115-0.344,0.218-0.483,0.351c-0.315,0.315-0.279,0.53,0.057,0.816c0.691,0.587,1.389,1.174,2.061,1.782
			c0.594,0.533,0.82,1.231,0.82,2.018c0.004,1.349,0.004,2.702,0.004,4.051c-0.004,0.276-0.021,0.548,0.322,0.673
			c0.075,0.021,0.154,0.175,0.147,0.261c-0.061,0.691-0.132,1.381-0.208,2.072c-0.004,0.029-0.007,0.057-0.025,0.075
			c-0.623,0.905-0.701,2.018-1.142,2.992c-0.021,0.039-0.029,0.082-0.061,0.111c-0.82,0.973-0.558,2.14-0.576,3.253
			c-0.004,0.111,0.075,0.293,0.168,0.333c0.34,0.147,0.419,0.433,0.515,0.741c0.147,0.48,0.293,0.97,0.497,1.417
			c0.075,0.172,0.304,0.315,0.497,0.383c2.53,0.97,5.035,2.001,7.455,3.242c0.494,0.251,0.902,0.551,1.263,0.916v1.528H62.734z"/>
	</g>
</g>
<g>
</g>
<g>
</g>
<g>
</g>
<g>
</g>
<g>
</g>
<g>
</g>
<g>
</g>
<g>
</g>
<g>
</g>
<g>
</g>
<g>
</g>
<g>
</g>
<g>
</g>
<g>
</g>
<g>
</g>
</svg>
